HIERARCHY
ROOT LINK_BASE
{
	OFFSET 0.000000 0.000000 0.000000
	CHANNELS 6 Xposition Yposition Zposition Zrotation Yrotation Xrotation
	JOINT LINK_HIP_PITCH_L
	{
		OFFSET -0.000000 7.917800 0.000003
		CHANNELS 3 Zrotation Yrotation Xrotation
		JOINT LINK_HIP_ROLL_L
		{
			OFFSET 0.466199 4.032201 -10.752001
			CHANNELS 3 Zrotation Yrotation Xrotation
			JOINT LINK_HIP_YAW_L
			{
				OFFSET 0.946159 -0.000001 -8.051204
				CHANNELS 3 Zrotation Yrotation Xrotation
				JOINT LINK_KNEE_PITCH_L
				{
					OFFSET -3.770699 0.000001 -28.791999
					CHANNELS 3 Zrotation Yrotation Xrotation
					JOINT LINK_ANKLE_PITCH_L
					{
						OFFSET -0.271681 0.000001 -43.866997
						CHANNELS 3 Zrotation Yrotation Xrotation
						JOINT LINK_ANKLE_ROLL_L
						{
							OFFSET 0.110731 0.000000 -3.792800
							CHANNELS 3 Zrotation Yrotation Xrotation
							JOINT LINK_ANKLE_ROLL_L_TOE
							{
								OFFSET 0.000000 0.000000 0.000000
								CHANNELS 3 Zrotation Yrotation Xrotation
								End Site
								{
									OFFSET 0.000000 0.000000 2.000000
								}
							}
							JOINT LINK_ANKLE_ROLL_L_HEEL
							{
								OFFSET 0.000000 0.000000 0.000000
								CHANNELS 3 Zrotation Yrotation Xrotation
								End Site
								{
									OFFSET 0.000000 0.000000 2.000000
								}
							}
						}
					}
				}
			}
		}
	}
	JOINT LINK_HIP_PITCH_R
	{
		OFFSET 0.000000 -7.917800 -0.000003
		CHANNELS 3 Zrotation Yrotation Xrotation
		JOINT LINK_HIP_ROLL_R
		{
			OFFSET 0.466201 -4.032200 -10.751998
			CHANNELS 3 Zrotation Yrotation Xrotation
			JOINT LINK_HIP_YAW_R
			{
				OFFSET 0.946162 -0.000001 -8.051197
				CHANNELS 3 Zrotation Yrotation Xrotation
				JOINT LINK_KNEE_PITCH_R
				{
					OFFSET -3.770701 0.000001 -28.792000
					CHANNELS 3 Zrotation Yrotation Xrotation
					JOINT LINK_ANKLE_PITCH_R
					{
						OFFSET -0.271679 -0.000001 -43.867000
						CHANNELS 3 Zrotation Yrotation Xrotation
						JOINT LINK_ANKLE_ROLL_R
						{
							OFFSET 0.110730 -0.000000 -3.792800
							CHANNELS 3 Zrotation Yrotation Xrotation
							JOINT LINK_ANKLE_ROLL_R_TOE
							{
								OFFSET 0.000000 0.000000 0.000000
								CHANNELS 3 Zrotation Yrotation Xrotation
								End Site
								{
									OFFSET 0.000000 0.000000 2.000000
								}
							}
							JOINT LINK_ANKLE_ROLL_R_HEEL
							{
								OFFSET 0.000000 0.000000 0.000000
								CHANNELS 3 Zrotation Yrotation Xrotation
								End Site
								{
									OFFSET 0.000000 0.000000 2.000000
								}
							}
						}
					}
				}
			}
		}
	}
	JOINT LINK_TORSO_YAW
	{
		OFFSET -0.000001 -0.000000 10.384004
		CHANNELS 3 Zrotation Yrotation Xrotation
		JOINT LINK_SHOULDER_PITCH_L
		{
			OFFSET -1.099999 16.303001 27.888999
			CHANNELS 3 Zrotation Yrotation Xrotation
			JOINT LINK_SHOULDER_ROLL_L
			{
				OFFSET -0.000002 6.253300 -1.545506
				CHANNELS 3 Zrotation Yrotation Xrotation
				JOINT LINK_SHOULDER_YAW_L
				{
					OFFSET 0.003461 0.852461 -8.271198
					CHANNELS 3 Zrotation Yrotation Xrotation
					JOINT LINK_ELBOW_PITCH_L
					{
						OFFSET 0.192520 1.359702 -15.074998
						CHANNELS 3 Zrotation Yrotation Xrotation
						JOINT LINK_ELBOW_YAW_L
						{
							OFFSET -0.220908 0.943622 -13.182004
							CHANNELS 3 Zrotation Yrotation Xrotation
							JOINT LINK_WRIST_PITCH_L
							{
								OFFSET 0.000000 0.000000 0.000000
								CHANNELS 3 Zrotation Yrotation Xrotation
								JOINT LINK_WRIST_ROLL_L
								{
									OFFSET 0.000000 0.000000 0.000000
									CHANNELS 3 Zrotation Yrotation Xrotation
									End Site
									{
										OFFSET 0.000000 0.000000 2.000000
									}
								}
							}
						}
					}
				}
			}
		}
		JOINT LINK_SHOULDER_PITCH_R
		{
			OFFSET -1.099998 -16.303000 27.888992
			CHANNELS 3 Zrotation Yrotation Xrotation
			JOINT LINK_SHOULDER_ROLL_R
			{
				OFFSET -0.000001 -6.253300 -1.545501
				CHANNELS 3 Zrotation Yrotation Xrotation
				JOINT LINK_SHOULDER_YAW_R
				{
					OFFSET 0.003462 -0.852461 -8.271199
					CHANNELS 3 Zrotation Yrotation Xrotation
					JOINT LINK_ELBOW_PITCH_R
					{
						OFFSET 0.192520 -1.359701 -15.075000
						CHANNELS 3 Zrotation Yrotation Xrotation
						JOINT LINK_ELBOW_YAW_R
						{
							OFFSET -0.220904 -0.943622 -13.182004
							CHANNELS 3 Zrotation Yrotation Xrotation
							JOINT LINK_WRIST_PITCH_R
							{
								OFFSET 0.000000 0.000000 0.000000
								CHANNELS 3 Zrotation Yrotation Xrotation
								JOINT LINK_WRIST_ROLL_R
								{
									OFFSET 0.000000 0.000000 0.000000
									CHANNELS 3 Zrotation Yrotation Xrotation
									End Site
									{
										OFFSET 0.000000 0.000000 2.000000
									}
								}
							}
						}
					}
				}
			}
		}
		JOINT LINK_HEAD_PITCH
		{
			OFFSET -1.130000 0.000000 38.604001
			CHANNELS 3 Zrotation Yrotation Xrotation
			JOINT LINK_HEAD_YAW
			{
				OFFSET 0.000001 -0.000000 4.019898
				CHANNELS 3 Zrotation Yrotation Xrotation
				End Site
				{
					OFFSET 0.000000 0.000000 2.000000
				}
			}
		}
	}
}
MOTION
Frames: 4
Frame Time: 0.02000000
-3.27201858 2.55710203 94.95710135 -51.00374552 10.42876407 -3.41683057 12.56055454 -39.06329018 -4.47139496 0.00000029 0.00000175 23.82130752 11.92101171 -0.00000042 0.00000040 -0.00000063 42.25197711 0.00000069 -0.00000003 -10.00031186 0.00000002 -0.00000087 -0.00000024 -9.79645931 0.00000000 0.00000000 0.00000000 0.00000000 0.00000000 0.00000000 -9.77638557 -32.36304801 2.84320314 0.00000192 0.00000108 -11.33133368 -8.72565857 -0.00000221 -0.00000089 -0.00000588 41.06339639 -0.00000266 0.00000225 -15.90269729 -0.00000065 0.00000010 0.00000015 9.30191033 0.00000000 0.00000000 0.00000000 0.00000000 0.00000000 0.00000000 12.66742883 -0.00000056 -0.00000009 -2.77468160 -31.03363445 0.77050215 0.00000090 0.00000043 30.52000659 9.58495436 -0.68382359 -0.05733223 -166.80988531 -72.56060234 162.09817989 10.04758758 -0.52068772 -2.28211548 0.00000000 0.00000000 0.00000000 0.00000000 0.00000000 0.00000000 3.67787602 -38.56440475 -1.28707972 0.00000324 0.00000073 7.76141621 39.57633701 2.61477031 0.94090833 154.89215129 -80.41160943 -150.48106331 -2.82550061 -0.18690056 0.63250622 0.00000000 0.00000000 0.00000000 0.00000000 0.00000000 0.00000000 -0.00000099 16.17467156 0.00000004 30.01542700 0.00000005 -0.00000034
-3.10285576 2.76474543 94.96298432 -50.71871621 10.15793156 -3.43541988 12.52981261 -38.99570639 -4.45203590 0.00000005 -0.00000156 23.60194073 11.71339135 0.00000220 -0.00000067 -0.00000154 42.51353590 -0.00000022 -0.00000057 -10.28167109 -0.00000010 0.00000079 0.00000004 -9.58942188 0.00000000 0.00000000 0.00000000 0.00000000 0.00000000 0.00000000 -9.62830819 -31.97273258 2.76436686 -0.00000143 -0.00000058 -11.63215595 -9.01711806 0.00000091 -0.00000015 -0.00000382 40.89248258 -0.00000122 -0.00000043 -15.75493772 0.00000035 0.00000056 0.00000024 9.49589752 0.00000000 0.00000000 0.00000000 0.00000000 0.00000000 0.00000000 12.31517336 0.00000022 0.00000016 -2.76517524 -30.94693852 0.76560964 -0.00000140 0.00000047 30.78505744 9.51175331 -0.67864760 -0.05646196 -166.94204800 -72.39787559 162.22421242 10.03171425 -0.52018127 -2.27845003 0.00000000 0.00000000 0.00000000 0.00000000 0.00000000 0.00000000 3.75111891 -39.11545215 -1.33301134 -0.00000324 -0.00000168 7.42087284 39.08895904 2.58780363 0.91878763 155.15649926 -80.31796020 -150.74168107 -2.79208225 -0.18487830 0.62497361 0.00000000 0.00000000 0.00000000 0.00000000 0.00000000 0.00000000 0.00000411 15.36593393 0.00000010 30.14951207 0.00000068 0.00000035
-2.90480703 2.95512173 94.97427940 -50.42326328 9.84810045 -3.44061649 12.46580957 -38.85456824 -4.41182328 0.00000188 0.00000087 23.36917325 11.52408358 0.00000212 -0.00000018 0.00000075 42.80056842 0.00000072 0.00000018 -10.68017717 -0.00000000 0.00000004 0.00000005 -9.38409064 0.00000000 0.00000000 0.00000000 0.00000000 0.00000000 0.00000000 -9.45333956 -31.50698471 2.67232026 0.00000056 -0.00000076 -11.94931008 -9.31597824 -0.00000125 -0.00000076 -0.00000451 40.69697311 -0.00000019 0.00000170 -15.61593324 -0.00000020 -0.00000116 0.00000025 9.69834475 0.00000000 0.00000000 0.00000000 0.00000000 0.00000000 0.00000000 11.99169929 0.00000041 0.00000005 -2.77913324 -31.07421072 0.77279943 -0.00000133 -0.00000120 31.09153115 9.27342329 -0.66179373 -0.05367401 -166.80891533 -72.56179460 162.09725732 10.04282173 -0.52053566 -2.28101787 0.00000000 0.00000000 0.00000000 0.00000000 0.00000000 0.00000000 3.79675378 -39.45451117 -1.36190769 -0.00000094 -0.00000214 6.94344710 38.63286857 2.56239953 0.89829597 155.71220253 -80.11437825 -151.28930348 -2.80701774 -0.18578528 0.62833974 0.00000000 0.00000000 0.00000000 0.00000000 0.00000000 0.00000000 -0.00000133 15.32542304 -0.00000003 30.42896332 0.00000021 -0.00000068
-2.68496331 3.14861275 94.97912526 -50.12872593 9.54896099 -3.44036601 12.40330611 -38.71613953 -4.37266817 -0.00000363 0.00000073 23.12391372 11.32452436 0.00000195 0.00000058 -0.00000077 43.11446760 -0.00000019 0.00000004 -11.12095428 0.00000054 0.00000031 -0.00000009 -9.18288491 0.00000000 0.00000000 0.00000000 0.00000000 0.00000000 0.00000000 -9.28185106 -31.04573111 2.58328989 -0.00000053 -0.00000018 -12.28567228 -9.59785443 0.00000023 -0.00000057 -0.00000086 40.52091669 0.00000102 0.00000246 -15.51551746 -0.00000061 0.00000277 -0.00000050 9.93060120 0.00000000 0.00000000 0.00000000 0.00000000 0.00000000 0.00000000 11.63024037 0.00000043 -0.00000008 -2.78072067 -31.08866226 0.77361920 -0.00000184 -0.00000085 31.35786680 9.04786147 -0.64583421 -0.05110008 -166.61669621 -72.79315212 161.91375388 10.05263648 -0.52084272 -2.28328146 0.00000000 0.00000000 0.00000000 0.00000000 0.00000000 0.00000000 3.83521639 -39.73775324 -1.38642347 0.00000217 0.00000030 6.46545161 38.28290323 2.54279352 0.88270952 156.19431360 -79.93000064 -151.76412471 -2.82286231 -0.18674306 0.63191194 0.00000000 0.00000000 0.00000000 0.00000000 0.00000000 0.00000000 0.00000233 15.48579327 0.00000052 30.72549858 0.00000111 0.00000027
